<svg width="32" height="32" viewBox="0 0 32 32" fill="none" xmlns="http://www.w3.org/2000/svg">
  <!-- Background circle with gradient -->
  <circle cx="16" cy="16" r="16" fill="url(#gradient)"/>
  
  <!-- Message circle icon -->
  <circle cx="16" cy="16" r="12" fill="white" opacity="0.1"/>
  <path d="M12 12h8c1.1 0 2 .9 2 2v4c0 1.1-.9 2-2 2h-6l-2 2v-2c0-1.1.9-2 2-2h6V14h-8v-2z" fill="white"/>
  
  <!-- Shield icon overlay -->
  <path d="M16 6l-4 2v6c0 3.3 2.7 6 6 6s6-2.7 6-6V8l-4-2zm0 2l2 1v5c0 2.2-1.8 4-4 4s-4-1.8-4-4V9l2-1z" fill="url(#shieldGradient)"/>
  
  <!-- Encryption dots -->
  <circle cx="10" cy="10" r="1" fill="white" opacity="0.6"/>
  <circle cx="22" cy="10" r="1" fill="white" opacity="0.6"/>
  <circle cx="10" cy="22" r="1" fill="white" opacity="0.6"/>
  <circle cx="22" cy="22" r="1" fill="white" opacity="0.6"/>
  
  <defs>
    <linearGradient id="gradient" x1="0%" y1="0%" x2="100%" y2="100%">
      <stop offset="0%" style="stop-color:#6366f1;stop-opacity:1" />
      <stop offset="100%" style="stop-color:#8b5cf6;stop-opacity:1" />
    </linearGradient>
    <linearGradient id="shieldGradient" x1="0%" y1="0%" x2="100%" y2="100%">
      <stop offset="0%" style="stop-color:#10b981;stop-opacity:1" />
      <stop offset="100%" style="stop-color:#059669;stop-opacity:1" />
    </linearGradient>
  </defs>
</svg>
